<svg xmlns="http://www.w3.org/2000/svg" viewBox="0 0 100 100" fill="none">
  <!-- Large gear -->
  <g class="gear-large" transform="translate(35, 35)">
    <circle cx="0" cy="0" r="18" stroke="#00D4FF" stroke-width="2"/>
    <circle cx="0" cy="0" r="8" stroke="#00D4FF" stroke-width="2"/>
    <!-- Teeth -->
    <rect x="-3" y="-22" width="6" height="8" fill="#00D4FF"/>
    <rect x="-3" y="14" width="6" height="8" fill="#00D4FF"/>
    <rect x="-22" y="-3" width="8" height="6" fill="#00D4FF"/>
    <rect x="14" y="-3" width="8" height="6" fill="#00D4FF"/>
    <rect x="10" y="-18" width="6" height="8" fill="#00D4FF" transform="rotate(45 13 -14)"/>
    <rect x="-16" y="10" width="6" height="8" fill="#00D4FF" transform="rotate(45 -13 14)"/>
    <rect x="10" y="10" width="6" height="8" fill="#00D4FF" transform="rotate(-45 13 14)"/>
    <rect x="-16" y="-18" width="6" height="8" fill="#00D4FF" transform="rotate(-45 -13 -14)"/>
  </g>
  
  <!-- Small gear -->
  <g class="gear-small" transform="translate(65, 60)">
    <circle cx="0" cy="0" r="12" stroke="#7B2FFC" stroke-width="2"/>
    <circle cx="0" cy="0" r="5" stroke="#7B2FFC" stroke-width="2"/>
    <!-- Teeth -->
    <rect x="-2" y="-15" width="4" height="6" fill="#7B2FFC"/>
    <rect x="-2" y="9" width="4" height="6" fill="#7B2FFC"/>
    <rect x="-15" y="-2" width="6" height="4" fill="#7B2FFC"/>
    <rect x="9" y="-2" width="6" height="4" fill="#7B2FFC"/>
    <rect x="7" y="-12" width="4" height="6" fill="#7B2FFC" transform="rotate(45 9 -9)"/>
    <rect x="-11" y="6" width="4" height="6" fill="#7B2FFC" transform="rotate(45 -9 9)"/>
  </g>
</svg>